<svg width="708" height="493" viewBox="0 0 708 493" fill="none" xmlns="http://www.w3.org/2000/svg">
<g id="Frame 232">
<g id="&#230;&#143;&#146;&#231;&#148;&#187;">
<path id="Vector 11" d="M59.1696 410.962C46.3213 456.269 71.2853 474.358 85.3733 477.739C284.014 477.739 583.856 488.75 609.447 466.75C705.809 383.913 604.376 273.18 519.848 210.63C459.558 166.015 452.225 51.7163 310.218 51.7168C121.054 51.7174 137.781 202.178 130.173 268.955C122.566 335.732 75.2299 354.328 59.1696 410.962Z" fill="#F2F3F7"/>
<path id="Vector 12" d="M111.577 246.977C110.732 219.928 106.505 219.082 103.97 218.237C92.9808 221.618 95.5167 241.905 75.23 271.49C54.9432 301.075 41.4187 330.659 69.313 332.35C97.2073 334.041 112.422 274.026 111.577 246.977Z" fill="#F2F3F7"/>
<path id="Vector 9" d="M430.248 476.893C422.077 465.341 403.706 433.446 395.591 398.282C402.491 405.683 412.864 417.519 422.967 430.403C413.085 402.001 412.996 375.741 414.188 366.161C465.75 420.259 452.225 470.131 463.214 481.12L452.225 476.893C453.12 479.429 430.248 476.893 430.248 476.893Z" fill="url(#paint0_linear)"/>
<path id="0" d="M448.326 377.888C453.331 398.626 452.867 415.523 446.935 428.582C441.003 441.64 429.763 450.165 413.214 454.159C396.871 458.103 383.073 455.729 371.819 447.036C360.566 438.343 352.408 423.962 347.347 403.892L340.685 376.288C335.631 355.345 336.121 338.404 342.155 325.467C348.257 312.513 359.48 304.064 375.823 300.12C392.165 296.177 405.964 298.551 417.217 307.244C428.454 315.868 436.603 330.215 441.665 350.284L448.326 377.888ZM411.251 354.79C408.252 342.361 404.356 333.746 399.564 328.944C394.824 324.056 388.849 322.483 381.639 324.222C374.635 325.913 370.105 329.876 368.05 336.113C366.046 342.264 366.325 351.099 368.887 362.616L377.686 399.078C380.635 411.3 384.479 420.001 389.217 425.18C394.006 430.273 400.075 431.933 407.422 430.16C414.701 428.403 419.266 424.286 421.118 417.808C422.97 411.33 422.548 402.203 419.852 390.428L411.251 354.79Z" fill="#053B99"/>
<path id="Vector 3" d="M361.78 190.343C361.78 209.953 350.51 216.546 344.875 217.392V266.418C397.62 261.684 409.679 213.729 409.116 190.343V115.957C409.116 105.907 407.841 94.9598 399.797 88.9343C395.9 86.0149 390.845 83.8374 384.603 83.8374C377.009 83.8374 371.494 87.0602 367.747 90.9207C362.393 96.4382 361.78 104.643 361.78 112.332V190.343Z" fill="#AACCBB" stroke="white"/>
<path id="Vector 4" d="M382.912 83.8374C378.686 85.528 372.093 93.1355 372.769 103.279C373.614 115.958 371.078 197.105 371.078 200.486C371.078 209.784 363.471 222.463 344.875 228.38M382.912 83.8374C386.575 84.4009 394.408 88.2329 396.437 99.0525C398.465 109.872 397.282 173.437 396.437 203.867C395.873 215.983 384.772 242.581 344.875 252.048M382.912 83.8374V200.486C383.194 208.939 375.981 231.254 344.875 239.369" stroke="white"/>
<path id="Vector 5" d="M270.227 113.845C270.227 129.642 279.419 134.954 284.014 135.635V175.128C240.998 171.315 231.162 132.684 231.622 113.845V57.0566C231.622 46.8927 232.87 35.3373 241.812 30.5057C244.545 29.0289 247.809 28.0491 251.614 28.0491C256.717 28.0491 260.669 29.8117 263.611 32.1721C269.68 37.0395 270.227 45.6198 270.227 53.3988V113.845Z" fill="#AACCBB" stroke="white"/>
<path id="Vector 7" d="M261.332 304.315C261.332 330.281 276.453 339.011 284.014 340.13V405.044C213.245 398.777 197.065 335.28 197.821 304.315V201.08C197.821 190.908 199.267 180.197 206.619 173.167C212.19 167.839 220.195 163.294 230.71 163.294C242.685 163.294 250.807 169.188 255.752 175.42C260.592 181.518 261.332 189.625 261.332 197.41V304.315Z" fill="#AACCBB" stroke="white"/>
<path id="Vector 6" d="M253.499 28.0491C256.89 29.4083 262.179 35.5249 261.636 43.6804C260.958 53.8747 262.993 119.119 262.993 121.837C262.993 129.313 269.096 139.507 284.014 144.265M253.499 28.0491C250.56 28.5022 244.276 31.5831 242.649 40.2823C241.021 48.9815 241.971 100.089 242.649 124.555C243.101 134.297 252.007 155.682 284.014 163.294M253.499 28.0491V121.837C253.273 128.633 259.059 146.575 284.014 153.1" stroke="white"/>
<path id="Vector 8" d="M233.969 163.294C239.53 165.52 248.204 175.536 247.314 188.89C246.202 205.583 249.539 312.42 249.539 316.872C249.539 329.113 259.548 345.807 284.014 353.597M233.969 163.294C229.15 164.036 218.844 169.081 216.175 183.326C213.506 197.571 215.063 281.259 216.175 321.323C216.916 337.275 231.522 372.293 284.014 384.758M233.969 163.294V316.872C233.598 328.001 243.088 357.381 284.014 368.064" stroke="white"/>
<path id="Rectangle 44" d="M341.458 32.0451L347.748 451.841L279.443 446.843V32.5096C279.443 15.3835 293.326 1.5 310.452 1.5C327.397 1.5 341.205 15.102 341.458 32.0451Z" fill="#AACCBB" stroke="white"/>
<path id="Vector 2" d="M311.063 1C300.075 1 291.622 13.172 291.622 41.5735C291.622 69.9749 290.213 323.897 291.622 447.308M311.063 1C322.052 1.84528 329.659 15.2007 329.659 41.5735C329.659 67.9462 331.35 325.306 332.195 450.689M311.063 1V450.689" stroke="white"/>
<path id="4" d="M246.083 401.936H263.566V426.624H246.083V460H215.461V426.624H152.205L150.828 407.339L215.144 305.727H246.083V401.936ZM181.343 401.936H215.461V347.474L213.448 350.97L181.343 401.936Z" fill="#053B99"/>
<path id="Vector 1" d="M0 492.11C19.7232 483.093 69.9615 475.016 109.041 470.131C190.188 459.987 160.91 425.779 279.788 439.702C289.043 440.786 298.365 442.057 307.681 443.476C307.682 443.476 307.682 443.476 307.682 443.476C375.305 424.88 463.214 454.917 498.716 463.37C534.217 471.823 578.172 439.48 629.734 464.838C668.322 483.816 694.631 486.96 705.477 487.056L707.5 487.036C706.9 487.055 706.225 487.062 705.477 487.056L506.489 488.967C507.011 489.099 507.52 489.228 508.014 489.351L179.2 492.11H0Z" fill="#F8C985"/>
<path id="4_2" d="M605.083 404.936H622.566V429.624H605.083V463H574.461V429.624H511.205L509.828 410.339L574.144 308.727H605.083V404.936ZM540.343 404.936H574.461V350.474L572.448 353.97L540.343 404.936Z" fill="#053B99"/>
<path id="Vector 10" d="M447.154 435.474C444.449 407.749 458.142 378.559 464.059 367.852C464.059 380.962 465.46 396.627 467.52 412.479C466.336 402.693 475.97 361.819 480.965 342.493C488.317 364.551 491.673 396.102 492.932 425.331C497.097 411.13 499.087 381.095 499.561 367.852C503.387 373.769 510.99 392.872 510.795 421.95C519.047 398.038 527.962 370.638 533.615 352.845C533.708 350.898 533.955 350.508 534.218 350.946C534.021 351.566 533.82 352.199 533.615 352.845C533.409 357.156 533.958 369.103 536.753 396.591C537.911 407.974 536.94 419.122 534.693 429.557L566.338 391.52C565.57 404.834 560.528 418.003 553.709 429.916C560.692 423.813 567.033 419.004 571.41 416.033C559.721 444.209 531.682 488.727 507.169 489.572H492.932H479.274H469.131C459.833 481.119 449.858 463.2 447.154 435.474Z" fill="url(#paint1_linear)"/>
<path id="Vector 13" d="M113.51 446.469C108.634 433.48 110.351 418.406 111.819 412.492C113.509 418.798 116.202 426.154 119.237 433.514C117.406 428.959 116.774 408.053 116.687 398.113C123.069 407.775 128.751 422.521 133.125 436.419C133.299 429.05 130.385 414.345 128.907 407.913C131.511 410.266 137.633 418.475 141.287 432.489C142.176 419.922 142.936 405.591 143.363 396.302C143.157 395.354 143.225 395.134 143.408 395.311C143.394 395.634 143.379 395.965 143.363 396.302C143.82 398.402 145.624 404.079 150.512 416.942C152.537 422.268 153.507 427.756 153.77 433.066L164.099 410.687C165.445 417.191 164.716 424.176 162.969 430.786C165.543 426.95 167.976 423.818 169.699 421.825C167.705 436.887 160.56 466.462 147.931 464.267L141.015 466.12L135.319 467.646L126.528 467.387C124.22 465.826 118.386 459.458 113.51 446.469Z" fill="url(#paint2_linear)"/>
<g id="Group 3">
<rect id="Rectangle 45" x="525.841" y="50.3516" width="13.5245" height="50.7168" rx="6.76225" transform="rotate(-59.8931 525.841 50.3516)" fill="#285B9C"/>
<path id="Rectangle 46" d="M538.477 42.0449L550.974 25.1236C554.215 20.7357 560.236 19.4862 564.955 22.2224V22.2224C570.07 25.1881 571.812 31.7385 568.846 36.8532L558.952 53.9171L538.477 42.0449Z" fill="#74AEDD"/>
<path id="Rectangle 48" d="M531.691 53.7434L523.213 72.9952C521.015 77.9874 522.922 83.8343 527.641 86.5705V86.5705C532.755 89.5362 539.306 87.7941 542.272 82.6794L552.166 65.6156L531.691 53.7434Z" fill="#74AEDD"/>
<path id="Rectangle 47" d="M561.877 55.6128L570.259 46.1107C572.017 44.1182 574.937 43.6433 577.235 44.976V44.976C579.898 46.5202 580.805 49.9308 579.261 52.5939L573.577 62.3969L561.877 55.6128Z" fill="#74AEDD"/>
<path id="Rectangle 49" d="M555.091 67.3118L551.008 79.3069C550.152 81.8222 551.19 84.592 553.489 85.9248V85.9248C556.152 87.469 559.562 86.5619 561.107 83.8988L566.791 74.0959L555.091 67.3118Z" fill="#74AEDD"/>
<path id="Vector 14" d="M536.592 47.2679C530.827 44.9887 520.45 37.977 525.057 28.164" stroke="#285B9C" stroke-linecap="round"/>
<path id="Vector 15" d="M534.92 49.8164C529.858 46.2383 518.311 41.3884 512.618 50.6138" stroke="#285B9C" stroke-linecap="round"/>
</g>
<path id="Vector 16" d="M582.399 80.4563C609.448 97.6437 650.021 149.6 595.923 219.928C528.301 307.837 476.738 289.241 514.776 254.584C552.814 219.928 612.829 290.086 557.885 324.742C513.931 352.468 493.926 357.145 489.418 356.018" stroke="#C3CFDD" stroke-linecap="round" stroke-dasharray="2 2"/>
</g>
</g>
<defs>
<linearGradient id="paint0_linear" x1="429.403" y1="366.161" x2="429.403" y2="481.12" gradientUnits="userSpaceOnUse">
<stop stop-color="#C1DCA7"/>
<stop offset="1" stop-color="#A7C888"/>
</linearGradient>
<linearGradient id="paint1_linear" x1="510.342" y1="342.493" x2="510.342" y2="488.457" gradientUnits="userSpaceOnUse">
<stop stop-color="#C6EF9F"/>
<stop offset="1" stop-color="#8BA573"/>
</linearGradient>
<linearGradient id="paint2_linear" x1="130.827" y1="394.324" x2="149.642" y2="464.541" gradientUnits="userSpaceOnUse">
<stop stop-color="#C6EF9F"/>
<stop offset="1" stop-color="#8BA573"/>
</linearGradient>
</defs>
</svg>
