<svg width="25" height="24" viewBox="0 0 25 24" fill="none" xmlns="http://www.w3.org/2000/svg">
<g id="Frame">
<path id="Vector" d="M19.074 13.711C19.3112 13.7079 19.5378 13.6123 19.7055 13.4445C19.8733 13.2768 19.9689 13.0502 19.972 12.813C19.972 12.315 19.573 11.915 19.074 11.915C18.575 11.915 18.176 12.315 18.176 12.813C18.176 13.313 18.576 13.711 19.074 13.711ZM14.649 13.711C14.8862 13.7079 15.1128 13.6123 15.2805 13.4445C15.4483 13.2768 15.5439 13.0502 15.547 12.813C15.547 12.315 15.147 11.915 14.649 11.915C14.149 11.915 13.751 12.315 13.751 12.813C13.751 13.313 14.15 13.711 14.649 13.711ZM21.216 18.751C21.1519 18.7866 21.1008 18.8416 21.0699 18.908C21.039 18.9745 21.0299 19.0491 21.044 19.121C21.044 19.169 21.044 19.218 21.069 19.268C21.167 19.685 21.363 20.349 21.363 20.374C21.363 20.447 21.388 20.496 21.388 20.546C21.388 20.575 21.3823 20.6037 21.3712 20.6304C21.36 20.6572 21.3437 20.6815 21.3232 20.7019C21.3027 20.7224 21.2783 20.7385 21.2515 20.7495C21.2247 20.7605 21.196 20.7661 21.167 20.766C21.117 20.766 21.093 20.742 21.044 20.718L19.595 19.882C19.4892 19.8238 19.3716 19.7903 19.251 19.784C19.178 19.784 19.104 19.784 19.055 19.808C18.367 20.005 17.655 20.103 16.894 20.103C13.234 20.103 10.287 17.646 10.287 14.598C10.287 11.551 13.234 9.093 16.894 9.093C20.553 9.093 23.5 11.551 23.5 14.598C23.5 16.245 22.616 17.744 21.216 18.752V18.751ZM17.173 8.099C17.0797 8.0959 16.9864 8.09423 16.893 8.094C12.719 8.094 9.287 10.954 9.287 14.599C9.287 15.153 9.367 15.689 9.515 16.199H9.426C8.55226 16.1902 7.68347 16.0664 6.842 15.831C6.768 15.806 6.694 15.806 6.62 15.806C6.47221 15.8091 6.32793 15.8516 6.202 15.929L4.454 16.934C4.404 16.959 4.355 16.984 4.306 16.984C4.23463 16.9832 4.16641 16.9545 4.11594 16.9041C4.06548 16.8536 4.03678 16.7854 4.036 16.714C4.036 16.64 4.06 16.591 4.085 16.517C4.109 16.493 4.331 15.683 4.454 15.193C4.454 15.143 4.478 15.07 4.478 15.021C4.47773 14.9353 4.45764 14.8508 4.4193 14.7741C4.38097 14.6974 4.32542 14.6307 4.257 14.579C2.558 13.376 1.5 11.586 1.5 9.598C1.5 5.945 5.07 3 9.45 3C13.215 3 16.38 5.169 17.173 8.098V8.099ZM12.019 8.517C12.592 8.517 13.045 8.04 13.045 7.491C13.045 6.918 12.592 6.465 12.019 6.465C11.446 6.465 10.993 6.918 10.993 7.491C10.993 8.064 11.446 8.517 12.019 8.517ZM6.759 8.517C7.332 8.517 7.786 8.04 7.786 7.491C7.786 6.918 7.332 6.465 6.759 6.465C6.187 6.465 5.733 6.918 5.733 7.491C5.733 8.064 6.187 8.517 6.759 8.517Z" fill="white"/>
</g>
</svg>
